# xmcd
#
# Track frame offsets: 
#        150
#        14713
#        32903
#        49008
#        68298
#        91050
#        107703
#        126965
#        145900
#        167060
#        186168
#
# Disc length: 2853 seconds
#
# Revision: 83
# Processed by: cddbd v1.5.2PL0 Copyright (c) Steve Scherf et al.
# Submitted via: ExactAudioCopyFreeDBPlugin 1.0
#
DISCID=8f0b230b,910b230b,930b230b,970b230b
DTITLE=Megadeth / Countdown To Extinction (06-01-28-041992)
DYEAR=1992
DGENRE=Metal
TTITLE0=Skin O' My Teeth
TTITLE1=Symphony Of Destruction
TTITLE2=Architecture Of Aggression
TTITLE3=Foreclosure Of A Dream
TTITLE4=Sweating Bullets
TTITLE5=This Was My Life
TTITLE6=Countdown To Extinction
TTITLE7=High Speed Dirt
TTITLE8=Psychotron
TTITLE9=Captive Honour
TTITLE10=Ashes In Your Mouth
EXTD=Dave Mustaine & Max Norman
EXTT0=Dave Mustaine
EXTT1=Dave Mustaine
EXTT2=Ellefson, Mustaine
EXTT3=Dave Mustaine
EXTT4=Dave Mustaine
EXTT5=Dave Mustaine
EXTT6=Friedman, Mustaine
EXTT7=Dave Mustaine
EXTT8=Dave Mustaine
EXTT9=Friedman, Menza, Mustaine
EXTT10=Ellefson, Friedman, Menza, Mustaine
PLAYORDER=
.
